<svg xmlns="http://www.w3.org/2000/svg" width="27.408" height="23.076" viewBox="0 0 27.408 23.076"><path d="M22.609,20.335H4.794a.687.687,0,0,0-.685.685v1.37a.687.687,0,0,0,.685.685H22.609a.687.687,0,0,0,.685-.685V21.02A.687.687,0,0,0,22.609,20.335ZM25.352,5.482A2.056,2.056,0,0,0,23.3,7.537a2.014,2.014,0,0,0,.188.848l-3.1,1.859a1.369,1.369,0,0,1-1.893-.5L15,3.64a2.056,2.056,0,1,0-2.6,0L8.916,9.747a1.37,1.37,0,0,1-1.893.5l-3.1-1.859A2.055,2.055,0,1,0,2.056,9.593a2.1,2.1,0,0,0,.33-.034l3.1,8.257H21.926l3.1-8.257a2.1,2.1,0,0,0,.33.034,2.056,2.056,0,1,0,0-4.111Z" fill="#2c2c2c"/></svg>