<!--?xml version="1.0" encoding="utf-8"?-->
<!-- Generator: Adobe Illustrator 15.1.0, SVG Export Plug-In . SVG Version: 6.00 Build 0)  -->

<svg version="1.1" id="_x32_" xmlns="http://www.w3.org/2000/svg" xmlns:xlink="http://www.w3.org/1999/xlink" x="0px" y="0px" width="512px" height="512px" viewBox="0 0 512 512" style="width: 16px; height: 16px; opacity: 1;" xml:space="preserve">
<style type="text/css">

	.st0{fill:#4B4B4B;}

</style>
<g>
	<path class="st0" d="M81.11,433.313c0,28.531,23.125,51.656,51.641,51.656h246.484c28.531,0,51.64-23.125,51.64-51.656V165.484
		H81.11V433.313z" style="fill: rgb(75, 75, 75);"></path>
	<path class="st0" d="M51.735,163.969l-0.031-0.031l-33.172-22.75c-5.391-3.688-12.75-2.328-16.453,3.063
		c-3.703,5.406-2.328,12.766,3.063,16.469l33.063,22.672l-0.047-0.016c2.078,1.438,3.313,3.813,3.313,6.344v34.031
		c0,6.531,5.297,11.844,11.844,11.844c6.531,0,11.828-5.313,11.828-11.844v-34.031C65.141,179.469,60.141,169.844,51.735,163.969z" style="fill: rgb(75, 75, 75);"></path>
	<path class="st0" d="M509.922,144.25c-3.703-5.391-11.078-6.75-16.469-3.063l-33.156,22.75l-0.047,0.031
		c-8.391,5.875-13.406,15.5-13.406,25.75v34.031c0,6.531,5.313,11.844,11.844,11.844c6.547,0,11.844-5.313,11.844-11.844v-34.031
		c0-2.531,1.234-4.906,3.297-6.344l-0.047,0.031l33.063-22.688C512.25,157.016,513.625,149.656,509.922,144.25z" style="fill: rgb(75, 75, 75);"></path>
	<path class="st0" d="M423.219,124.609c0,0,0.078-0.078-3.797-2.234c-42.297-23.5-91.813-37.047-144.781-37.047H237.36
		c-52.969,0-102.484,13.547-144.797,37.047c-3.875,2.156-3.797,2.234-3.797,2.234c-4.734,2.781-7.656,7.859-7.656,13.359v8.688
		h349.765v-8.688C430.875,132.469,427.969,127.391,423.219,124.609z" style="fill: rgb(75, 75, 75);"></path>
	<path class="st0" d="M256,78.047c14.078,0,25.5-11.422,25.5-25.516c0-14.063-11.422-25.5-25.5-25.5
		c-14.094,0-25.516,11.438-25.516,25.5C230.485,66.625,241.907,78.047,256,78.047z" style="fill: rgb(75, 75, 75);"></path>
</g>
</svg>
