<!--?xml version="1.0" encoding="utf-8"?-->
<!-- Generator: Adobe Illustrator 18.1.1, SVG Export Plug-In . SVG Version: 6.00 Build 0)  -->

<svg version="1.1" id="_x32_" xmlns="http://www.w3.org/2000/svg" xmlns:xlink="http://www.w3.org/1999/xlink" x="0px" y="0px" viewBox="0 0 512 512" style="width: 16px; height: 16px; opacity: 1;" xml:space="preserve">
<style type="text/css">
	.st0{fill:#4B4B4B;}
</style>
<g>
	<path class="st0" d="M134.297,417.081C228.447,463.012,233.041,512,233.041,512h22.962h22.961c0,0,4.594-48.988,98.737-94.919
		v-17.6H134.297V417.081z" style="fill: rgb(185, 130, 250);"></path>
	<path class="st0" d="M359.335,235.607c6.2-26.872,28.518-55.856,26.865-82.674c-3.904-63.453-53.73-76.466-53.73-90.931
		c0-14.464,0-62.002,0-62.002h-18.6v62.002c0,0-28.936,47.53-57.865,51.666c-28.937-4.136-57.866-51.666-57.866-51.666V0h-18.601
		c0,0,0,47.537,0,62.002c0,14.465-49.834,27.478-53.737,90.931c-1.646,26.818,20.664,55.802,26.872,82.674
		c6.192,26.865-18.376,145.498-18.376,145.498h243.405C377.702,381.105,353.134,262.472,359.335,235.607z" style="fill: rgb(185, 130, 250);"></path>
</g>
</svg>
