<!--?xml version="1.0" encoding="utf-8"?-->
<!-- Generator: Adobe Illustrator 15.1.0, SVG Export Plug-In . SVG Version: 6.00 Build 0)  -->

<svg version="1.1" id="_x32_" xmlns="http://www.w3.org/2000/svg" xmlns:xlink="http://www.w3.org/1999/xlink" x="0px" y="0px" width="512px" height="512px" viewBox="0 0 512 512" style="width: 16px; height: 16px; opacity: 1;" xml:space="preserve">
<style type="text/css">

	.st0{fill:#4B4B4B;}

</style>
<g>
	<path class="st0" d="M122.094,286.071c-20.406,0-36.969,16.547-36.969,36.969c0,20.406,16.563,36.969,36.969,36.969
		s36.969-16.563,36.969-36.969C159.063,302.618,142.5,286.071,122.094,286.071z M122.094,341.18c-10,0-18.141-8.141-18.141-18.141
		s8.141-18.141,18.141-18.141s18.141,8.141,18.141,18.141S132.094,341.18,122.094,341.18z" style="fill: rgb(252, 238, 0);"></path>
	<path class="st0" d="M379.359,286.071c-20.422,0-36.953,16.547-36.953,36.969c0,20.406,16.531,36.969,36.953,36.969
		s36.969-16.563,36.969-36.969C416.328,302.618,399.781,286.071,379.359,286.071z M379.359,341.18c-10,0-18.125-8.141-18.125-18.141
		s8.125-18.141,18.125-18.141c10.016,0,18.141,8.141,18.141,18.141S389.375,341.18,379.359,341.18z" style="fill: rgb(252, 238, 0);"></path>
	<path class="st0" d="M122.094,317.493c-3.063,0-5.531,2.484-5.531,5.547c0,3.047,2.469,5.547,5.531,5.547s5.531-2.5,5.531-5.547
		C127.625,319.977,125.156,317.493,122.094,317.493z" style="fill: rgb(252, 238, 0);"></path>
	<path class="st0" d="M379.359,317.493c-3.047,0-5.547,2.484-5.547,5.547c0,3.047,2.5,5.547,5.547,5.547
		c3.063,0,5.547-2.5,5.547-5.547C384.906,319.977,382.422,317.493,379.359,317.493z" style="fill: rgb(252, 238, 0);"></path>
	<path class="st0" d="M496.531,254.54L377.656,216.93l-47.953-41.016c-19.391-15.016-43.203-23.234-67.75-23.328l-119.891-0.594
		c-11.75-0.063-18.25,6.766-26.953,17.766L83.313,211.79H19.984C5.156,211.227,0,222.946,0,229.805l15.703,86.672
		c0,8.031,6.516,14.547,14.547,14.547h44.609c-0.453-2.594-0.688-5.266-0.688-7.984c0-26.422,21.5-47.922,47.922-47.922
		s47.922,21.5,47.922,47.922c0,2.719-0.25,5.391-0.688,7.984h162.797c-0.438-2.594-0.688-5.266-0.688-7.984
		c0-26.422,21.5-47.922,47.922-47.922s47.922,21.5,47.922,47.922c0,2.719-0.25,5.391-0.672,7.984h70.844
		c8.016,0,14.547-7.656,14.547-15.688v-35.078C512,269.477,506.047,259.586,496.531,254.54z M206.516,218.149H100.156l29.828-39.438
		c8.141-10.297,10.859-11.953,15.328-11.953l61.203,0.281V218.149z M224.188,218.149v-51.016l36.313,0.188
		c20.438,0.094,40.594,7,56.813,19.453l36.656,31.375H224.188z M497.781,285.915c-1.406,3-7.063,3.25-15.438,1.406
		c-12.078-2.656-21.188-9.094-17.531-16.906c3.672-7.797,14.469-4.891,24.203,2.719
		C495.766,278.399,499.188,282.899,497.781,285.915z" style="fill: rgb(252, 238, 0);"></path>
</g>
</svg>
