<svg xmlns="http://www.w3.org/2000/svg" width="20.067" height="20.924" viewBox="0 0 20.067 20.924"><path d="M19.795,18.09l-3.908-4.074a.921.921,0,0,0-.666-.286h-.639A8.689,8.689,0,0,0,16.306,8.5,8.33,8.33,0,0,0,8.153,0,8.33,8.33,0,0,0,0,8.5,8.33,8.33,0,0,0,8.153,17a7.905,7.905,0,0,0,5.017-1.8v.666a1,1,0,0,0,.274.695l3.908,4.074a.91.91,0,0,0,1.329,0l1.109-1.156a1.015,1.015,0,0,0,0-1.389ZM8.153,13.73A5.124,5.124,0,0,1,3.136,8.5a5.124,5.124,0,0,1,5.017-5.23A5.124,5.124,0,0,1,13.17,8.5,5.124,5.124,0,0,1,8.153,13.73Z" fill="#b4b4b4"/></svg>